<svg width="88" height="88" viewBox="0 0 88 88" fill="none" xmlns="http://www.w3.org/2000/svg">
<path d="M12 12L16 2L28.5 14.5L25.5 25.5M12 12L25.5 25.5M12 12L2 16L14 28.5L25.5 25.5M44.5 44.5L25.5 25.5M57 44C57 51.1797 51.1797 57 44 57C36.8203 57 31 51.1797 31 44C31 36.8203 36.8203 31 44 31C51.1797 31 57 36.8203 57 44ZM72 44C72 59.464 59.464 72 44 72C28.536 72 16 59.464 16 44C16 28.536 28.536 16 44 16C59.464 16 72 28.536 72 44ZM86 44C86 67.196 67.196 86 44 86C20.804 86 2 67.196 2 44C2 20.804 20.804 2 44 2C67.196 2 86 20.804 86 44Z" stroke="white" stroke-width="4" stroke-linecap="round" stroke-linejoin="round"/>
</svg>
